<svg xmlns="http://www.w3.org/2000/svg" version="1.1" xmlns:xlink="http://www.w3.org/1999/xlink" xmlns:svgjs="http://svgjs.dev/svgjs" width="1440" height="1000" preserveAspectRatio="none" viewBox="0 0 1440 1000"><g mask="url(&quot;#SvgjsMask1080&quot;)" fill="none"><rect width="1440" height="1000" x="0" y="0" fill="url(&quot;#SvgjsRadialGradient1081&quot;)"></rect><path d="M709.583,705.888C799.083,706.844,876.454,647.806,919.692,569.438C961.424,493.801,957.087,404.82,918.272,327.645C874.453,240.522,807.101,152.563,709.583,151.689C611.109,150.806,537.634,235.407,494.312,323.844C456.352,401.335,464.744,489.857,507.104,565.033C550.363,641.805,621.467,704.947,709.583,705.888" fill="rgba(28, 83, 142, 0.4)" class="triangle-float3"></path><path d="M755.474,730.738C803.04,727.963,843.837,698.911,866.653,657.082C888.477,617.073,887.77,569.135,865.23,529.525C842.433,489.464,801.567,461.691,755.474,461.708C709.408,461.725,670.94,490.966,645.86,529.606C617.779,572.87,594.618,626.223,619.3,671.512C644.687,718.095,702.512,733.828,755.474,730.738" fill="rgba(28, 83, 142, 0.4)" class="triangle-float2"></path><path d="M1389.298,1109.655C1472.355,1112.421,1557.871,1087.554,1602.984,1017.762C1651.796,942.248,1659.276,842.264,1611.291,766.222C1565.826,694.173,1474.456,676.613,1389.298,679.132C1309.399,681.495,1229.33,709.734,1188.943,778.715C1148.182,848.335,1157.135,935.294,1198.916,1004.307C1239.175,1070.806,1311.605,1107.068,1389.298,1109.655" fill="rgba(28, 83, 142, 0.4)" class="triangle-float2"></path><path d="M917.579,288.478C951.389,286.93,975.339,260.094,993.095,231.281C1012.108,200.427,1029.796,164.633,1013.997,132.016C996.582,96.063,957.524,75.917,917.579,75.382C876.669,74.834,836.075,93.4,816.586,129.374C797.845,163.969,807.968,205.575,829.053,238.793C848.489,269.413,881.349,290.137,917.579,288.478" fill="rgba(28, 83, 142, 0.4)" class="triangle-float3"></path><path d="M43.762,546.822C88.387,547.166,137.536,536.014,158.031,496.373C177.551,458.617,153.603,415.914,129.564,380.862C109.384,351.438,79.432,330.57,43.762,329.757C6.585,328.91,-28.291,345.965,-49.092,376.79C-72.928,412.113,-87.924,457.237,-67.5,494.637C-46.457,533.171,-0.142,546.484,43.762,546.822" fill="rgba(28, 83, 142, 0.4)" class="triangle-float3"></path><path d="M627.726,990.624C686.23,991.993,741.572,961.239,770.529,910.385C799.202,860.029,795.685,797.866,765.732,748.261C736.781,700.316,683.691,676.082,627.726,673.893C567.009,671.518,499.846,683.944,469.663,736.681C439.609,789.192,464.08,852.595,496.052,903.961C525.812,951.773,571.424,989.306,627.726,990.624" fill="rgba(28, 83, 142, 0.4)" class="triangle-float2"></path><path d="M-19.725,1093.496C21.92,1090.38,46.374,1050.624,65.513,1013.507C82.611,980.348,90.903,943.339,75.138,909.526C56.516,869.587,24.322,829.364,-19.725,830.692C-62.582,831.984,-84.22,877.553,-105.175,914.96C-125.423,951.106,-148.231,990.79,-130.345,1028.161C-110.53,1069.562,-65.496,1096.921,-19.725,1093.496" fill="rgba(28, 83, 142, 0.4)" class="triangle-float1"></path><path d="M65.78 41.38 a231.52 231.52 0 1 0 463.04 0 a231.52 231.52 0 1 0 -463.04 0z" fill="rgba(28, 83, 142, 0.4)" class="triangle-float1"></path><path d="M241.3 451.22 a316.76 316.76 0 1 0 633.52 0 a316.76 316.76 0 1 0 -633.52 0z" fill="rgba(28, 83, 142, 0.4)" class="triangle-float3"></path><path d="M1495.531,874.059C1570.554,876.117,1635.286,827.515,1673.969,763.201C1714.039,696.58,1729.166,615.008,1692.61,546.396C1654.012,473.951,1577.477,423.494,1495.531,428.284C1419.704,432.716,1368.568,499.336,1334.689,567.318C1304.963,626.966,1302.332,694.832,1333.281,753.855C1366.782,817.745,1423.417,872.081,1495.531,874.059" fill="rgba(28, 83, 142, 0.4)" class="triangle-float1"></path><path d="M709.347,1079.876C768.703,1075.433,810.413,1028.758,840.884,977.627C872.361,924.807,899.298,862.928,871.236,808.217C841.266,749.788,775.011,721.798,709.347,721.179C642.49,720.548,576.971,748.078,542.08,805.112C505.692,864.593,502.364,940.692,538.622,1000.252C573.618,1057.739,642.233,1084.9,709.347,1079.876" fill="rgba(28, 83, 142, 0.4)" class="triangle-float2"></path><path d="M1004.302,148.095C1043.306,149.625,1082.467,132.617,1101.746,98.676C1120.825,65.085,1111.487,25.1,1093.616,-9.149C1073.917,-46.901,1046.778,-85.067,1004.302,-88.072C957.539,-91.381,910.105,-65.921,890.041,-23.552C871.888,14.782,895.752,56.211,919.255,91.519C939.477,121.897,967.837,146.665,1004.302,148.095" fill="rgba(28, 83, 142, 0.4)" class="triangle-float3"></path><path d="M1114.891,1030.622C1211.732,1022.759,1275.303,939.11,1321.265,853.509C1364.092,773.746,1384.295,683.024,1345.428,601.259C1300.387,506.506,1219.802,418.798,1114.891,419.363C1010.618,419.924,940.858,513.475,888.613,603.718C836.22,694.216,791.995,800.115,840.968,892.509C892.296,989.346,1005.652,1039.492,1114.891,1030.622" fill="rgba(28, 83, 142, 0.4)" class="triangle-float1"></path><path d="M342.22 888.77 a199.2 199.2 0 1 0 398.4 0 a199.2 199.2 0 1 0 -398.4 0z" fill="rgba(28, 83, 142, 0.4)" class="triangle-float1"></path><path d="M1036.2 700.6 a203.7 203.7 0 1 0 407.4 0 a203.7 203.7 0 1 0 -407.4 0z" fill="rgba(28, 83, 142, 0.4)" class="triangle-float2"></path></g><defs><mask id="SvgjsMask1080"><rect width="1440" height="1000" fill="#ffffff"></rect></mask><radialGradient cx="100%" cy="100%" r="1753.17" gradientUnits="userSpaceOnUse" id="SvgjsRadialGradient1081"><stop stop-color="#0e2a47" offset="0"></stop><stop stop-color="#00459e" offset="1"></stop></radialGradient><style>
                @keyframes float1 {
                    0%{transform: translate(0, 0)}
                    50%{transform: translate(-10px, 0)}
                    100%{transform: translate(0, 0)}
                }

                .triangle-float1 {
                    animation: float1 5s infinite;
                }

                @keyframes float2 {
                    0%{transform: translate(0, 0)}
                    50%{transform: translate(-5px, -5px)}
                    100%{transform: translate(0, 0)}
                }

                .triangle-float2 {
                    animation: float2 4s infinite;
                }

                @keyframes float3 {
                    0%{transform: translate(0, 0)}
                    50%{transform: translate(0, -10px)}
                    100%{transform: translate(0, 0)}
                }

                .triangle-float3 {
                    animation: float3 6s infinite;
                }
            </style></defs></svg>